<?xml version="1.0" standalone="no"?>
 <!DOCTYPE svg PUBLIC "-//W3C//DTD SVG 1.1//EN" 
 "http://www.w3.org/Graphics/SVG/1.1/DTD/svg11.dtd"> 
<svg
  xmlns:svg="http://www.w3.org/2000/svg"
  xmlns="http://www.w3.org/2000/svg"
  xmlns:xlink="http://www.w3.org/1999/xlink"
  version="1.1"
  width="297.0022mm" height="210.0072mm" viewBox="0.0000 0.0000 297.0022 210.0072">
<title>SVG Image created as ponte_h-B_Cu.svg date 2024/10/01 20:08:40 </title>
  <desc>Image generated by PCBNEW </desc>
<g style="fill:#000000; fill-opacity:1.0000;stroke:#000000; stroke-opacity:1.0000;
stroke-linecap:round; stroke-linejoin:round;"
 transform="translate(0 0) scale(1 1)">
<path style="fill:#000000; fill-opacity:1.0000; stroke:none;fill-rule:evenodd;"
d="M 214.9572,58.8750
211.9572,58.8750
211.9572,61.8750
214.9572,61.8750
Z" /> 
</g>
<g style="fill:#000000; fill-opacity:1.0000; stroke:none;">
<circle cx="213.4572" cy="65.4550" r="1.5000" /> 
</g>
<g style="fill:#000000; fill-opacity:1.0000; stroke:none;">
<circle cx="213.4572" cy="70.5350" r="1.5000" /> 
<path style="fill:#000000; fill-opacity:1.0000; stroke:none;fill-rule:evenodd;"
d="M 207.0372,53.9550
207.0372,50.9550
204.0372,50.9550
204.0372,53.9550
Z" /> 
</g>
<g style="fill:#000000; fill-opacity:1.0000; stroke:none;">
<circle cx="200.4572" cy="52.4550" r="1.5000" /> 
<circle cx="195.3772" cy="52.4550" r="1.5000" /> 
<path style="fill:#000000; fill-opacity:1.0000; stroke:none;fill-rule:evenodd;"
d="M 214.9572,74.8750
211.9572,74.8750
211.9572,77.8750
214.9572,77.8750
Z" /> 
<circle cx="213.4572" cy="81.4550" r="1.5000" /> 
<path style="fill:#000000; fill-opacity:1.0000; stroke:none;fill-rule:evenodd;"
d="M 205.6972,61.0050
205.6972,59.0050
203.1972,59.0050
203.1972,61.0050
Z" /> 
<path style="fill:#000000; fill-opacity:1.0000; stroke:none;fill-rule:evenodd;"
d="M 205.6972,63.5450
205.6972,61.5450
203.1972,61.5450
203.1972,63.5450
Z" /> 
<path style="fill:#000000; fill-opacity:1.0000; stroke:none;fill-rule:evenodd;"
d="M 205.6972,66.0850
205.6972,64.0850
203.1972,64.0850
203.1972,66.0850
Z" /> 
<path style="fill:#000000; fill-opacity:1.0000; stroke:none;fill-rule:evenodd;"
d="M 205.6972,68.6250
205.6972,66.6250
203.1972,66.6250
203.1972,68.6250
Z" /> 
<path style="fill:#000000; fill-opacity:1.0000; stroke:none;fill-rule:evenodd;"
d="M 205.6972,71.1650
205.6972,69.1650
203.1972,69.1650
203.1972,71.1650
Z" /> 
<path style="fill:#000000; fill-opacity:1.0000; stroke:none;fill-rule:evenodd;"
d="M 205.6972,73.7050
205.6972,71.7050
203.1972,71.7050
203.1972,73.7050
Z" /> 
<path style="fill:#000000; fill-opacity:1.0000; stroke:none;fill-rule:evenodd;"
d="M 205.6972,76.2450
205.6972,74.2450
203.1972,74.2450
203.1972,76.2450
Z" /> 
<path style="fill:#000000; fill-opacity:1.0000; stroke:none;fill-rule:evenodd;"
d="M 205.6972,78.7850
205.6972,76.7850
203.1972,76.7850
203.1972,78.7850
Z" /> 
<path style="fill:#000000; fill-opacity:1.0000; stroke:none;fill-rule:evenodd;"
d="M 198.0772,78.7850
198.0772,76.7850
195.5772,76.7850
195.5772,78.7850
Z" /> 
<path style="fill:#000000; fill-opacity:1.0000; stroke:none;fill-rule:evenodd;"
d="M 198.0772,76.2450
198.0772,74.2450
195.5772,74.2450
195.5772,76.2450
Z" /> 
<path style="fill:#000000; fill-opacity:1.0000; stroke:none;fill-rule:evenodd;"
d="M 198.0772,73.7050
198.0772,71.7050
195.5772,71.7050
195.5772,73.7050
Z" /> 
<path style="fill:#000000; fill-opacity:1.0000; stroke:none;fill-rule:evenodd;"
d="M 198.0772,71.1650
198.0772,69.1650
195.5772,69.1650
195.5772,71.1650
Z" /> 
<path style="fill:#000000; fill-opacity:1.0000; stroke:none;fill-rule:evenodd;"
d="M 198.0772,68.6250
198.0772,66.6250
195.5772,66.6250
195.5772,68.6250
Z" /> 
<path style="fill:#000000; fill-opacity:1.0000; stroke:none;fill-rule:evenodd;"
d="M 198.0772,66.0850
198.0772,64.0850
195.5772,64.0850
195.5772,66.0850
Z" /> 
<path style="fill:#000000; fill-opacity:1.0000; stroke:none;fill-rule:evenodd;"
d="M 198.0772,63.5450
198.0772,61.5450
195.5772,61.5450
195.5772,63.5450
Z" /> 
<path style="fill:#000000; fill-opacity:1.0000; stroke:none;fill-rule:evenodd;"
d="M 198.0772,61.0050
198.0772,59.0050
195.5772,59.0050
195.5772,61.0050
Z" /> 
<path style="fill:#000000; fill-opacity:1.0000; stroke:none;fill-rule:evenodd;"
d="M 187.5022,85.5000
190.5022,85.5000
190.5022,82.5000
187.5022,82.5000
Z" /> 
</g>
<g style="fill:#000000; fill-opacity:1.0000; stroke:none;">
<circle cx="189.0022" cy="78.9200" r="1.5000" /> 
<path style="fill:#000000; fill-opacity:1.0000; stroke:none;fill-rule:evenodd;"
d="M 190.5022,61.4200
187.5022,61.4200
187.5022,64.4200
190.5022,64.4200
Z" /> 
</g>
<g style="fill:#000000; fill-opacity:1.0000; stroke:none;">
<circle cx="189.0022" cy="68.0000" r="1.5000" /> 
</g>
<g style="fill:#000000; fill-opacity:1.0000; stroke:none;">
<circle cx="189.0022" cy="73.0800" r="1.5000" /> 
</g>
<g style="fill:none; 
stroke:#000000; stroke-width:1.0000; stroke-opacity:1; 
stroke-linecap:round; stroke-linejoin:round;">
<path d="M198.8372 70.1650
L200.0022 69.0000
" />
<path d="M196.8272 70.1650
L198.8372 70.1650
" />
<path d="M200.0022 52.9100
L200.4572 52.4550
" />
<path d="M200.0022 69.0000
L200.0022 52.9100
" />
<path d="M201.1672 70.1650
L200.0022 69.0000
" />
<path d="M204.4472 70.1650
L201.1672 70.1650
" />
</g>
<g style="fill:none; 
stroke:#000000; stroke-width:1.0160; stroke-opacity:1; 
stroke-linecap:round; stroke-linejoin:round;">
<path d="M185.9222 78.9200
L189.0022 78.9200
" />
<path d="M184.0022 69.0000
L184.0022 77.0000
" />
<path d="M196.1202 65.7920
L187.2102 65.7920
" />
<path d="M187.2102 65.7920
L184.0022 69.0000
" />
<path d="M184.0022 77.0000
L185.9222 78.9200
" />
<path d="M196.8272 65.0850
L196.1202 65.7920
" />
<path d="M196.8272 65.0850
L196.7842 65.1280
" />
<path d="M195.3772 52.4550
L195.3772 58.5550
" />
<path d="M195.3772 58.5550
L196.8272 60.0050
" />
</g>
<g style="fill:none; 
stroke:#000000; stroke-width:1.0000; stroke-opacity:1; 
stroke-linecap:round; stroke-linejoin:round;">
<path d="M196.8272 70.1650
L196.8272 67.6250
" />
<path d="M204.4472 70.1650
L204.4472 67.6250
" />
</g>
<g style="fill:none; 
stroke:#000000; stroke-width:1.0160; stroke-opacity:1; 
stroke-linecap:round; stroke-linejoin:round;">
<path d="M221.4572 61.4550
L212.4572 52.4550
" />
<path d="M204.4472 77.7850
L204.4472 86.4450
" />
<path d="M206.4572 88.4550
L217.4572 88.4550
" />
<path d="M204.4472 86.4450
L206.4572 88.4550
" />
<path d="M212.4572 52.4550
L205.5372 52.4550
" />
<path d="M221.4572 84.4550
L221.4572 61.4550
" />
<path d="M217.4572 88.4550
L221.4572 84.4550
" />
<path d="M205.7072 72.7050
L213.4572 80.4550
" />
</g>
<g style="fill:none; 
stroke:#000000; stroke-width:1.0000; stroke-opacity:1; 
stroke-linecap:round; stroke-linejoin:round;">
<path d="M213.4572 80.4550
L213.4572 81.4550
" />
<path d="M213.1972 81.4550
L213.4572 81.4550
" />
</g>
<g style="fill:none; 
stroke:#000000; stroke-width:1.0160; stroke-opacity:1; 
stroke-linecap:round; stroke-linejoin:round;">
<path d="M204.4472 72.7050
L205.7072 72.7050
" />
<path d="M209.4572 66.4550
L209.4572 72.3750
" />
<path d="M209.4572 72.3750
L213.4572 76.3750
" />
<path d="M204.4472 65.0850
L208.0872 65.0850
" />
<path d="M208.0872 65.0850
L209.4572 66.4550
" />
<path d="M200.0022 82.0000
L198.0022 84.0000
" />
<path d="M198.0022 84.0000
L189.0022 84.0000
" />
<path d="M200.0022 74.0000
L200.0022 82.0000
" />
</g>
<g style="fill:none; 
stroke:#000000; stroke-width:1.0000; stroke-opacity:1; 
stroke-linecap:round; stroke-linejoin:round;">
<path d="M196.8272 72.7050
L198.7072 72.7050
" />
</g>
<g style="fill:none; 
stroke:#000000; stroke-width:1.0160; stroke-opacity:1; 
stroke-linecap:round; stroke-linejoin:round;">
<path d="M198.7072 72.7050
L200.0022 74.0000
" />
<path d="M204.4472 60.0050
L213.0872 60.0050
" />
</g>
<g style="fill:none; 
stroke:#000000; stroke-width:1.0000; stroke-opacity:1; 
stroke-linecap:round; stroke-linejoin:round;">
<path d="M213.0872 60.0050
L213.4572 60.3750
" />
</g>
<g style="fill:none; 
stroke:#000000; stroke-width:1.0160; stroke-opacity:1; 
stroke-linecap:round; stroke-linejoin:round;">
<path d="M210.5472 62.5450
L213.4572 65.4550
" />
<path d="M204.4472 62.5450
L210.5472 62.5450
" />
<path d="M207.4572 77.4550
L205.2472 75.2450
" />
</g>
<g style="fill:none; 
stroke:#000000; stroke-width:1.0000; stroke-opacity:1; 
stroke-linecap:round; stroke-linejoin:round;">
<path d="M205.2472 75.2450
L204.4472 75.2450
" />
</g>
<g style="fill:none; 
stroke:#000000; stroke-width:1.0160; stroke-opacity:1; 
stroke-linecap:round; stroke-linejoin:round;">
<path d="M217.4572 83.4550
L216.4572 84.4550
" />
</g>
<g style="fill:none; 
stroke:#000000; stroke-width:1.0000; stroke-opacity:1; 
stroke-linecap:round; stroke-linejoin:round;">
<path d="M204.4472 75.5563
L204.4472 75.2450
" />
</g>
<g style="fill:none; 
stroke:#000000; stroke-width:1.0160; stroke-opacity:1; 
stroke-linecap:round; stroke-linejoin:round;">
<path d="M217.4572 74.5350
L217.4572 83.4550
" />
<path d="M207.4572 82.4550
L207.4572 77.4550
" />
<path d="M216.4572 84.4550
L209.4572 84.4550
" />
<path d="M209.4572 84.4550
L207.4572 82.4550
" />
<path d="M213.4572 70.5350
L217.4572 74.5350
" />
<path d="M195.2472 75.2450
L193.0022 73.0000
" />
<path d="M193.0022 70.0000
L192.0022 69.0000
" />
<path d="M192.0022 69.0000
L190.0022 69.0000
" />
</g>
<g style="fill:none; 
stroke:#000000; stroke-width:1.0000; stroke-opacity:1; 
stroke-linecap:round; stroke-linejoin:round;">
<path d="M196.8272 75.2450
L195.2472 75.2450
" />
</g>
<g style="fill:none; 
stroke:#000000; stroke-width:1.0160; stroke-opacity:1; 
stroke-linecap:round; stroke-linejoin:round;">
<path d="M193.0022 73.0000
L193.0022 70.0000
" />
</g>
<g style="fill:none; 
stroke:#000000; stroke-width:1.0000; stroke-opacity:1; 
stroke-linecap:round; stroke-linejoin:round;">
<path d="M190.0022 69.0000
L189.0022 68.0000
" />
</g>
<g style="fill:none; 
stroke:#000000; stroke-width:1.0160; stroke-opacity:1; 
stroke-linecap:round; stroke-linejoin:round;">
<path d="M193.7072 77.7850
L189.0022 73.0800
" />
<path d="M196.8272 77.7850
L193.7072 77.7850
" />
<path d="M189.3772 62.5450
L189.0022 62.9200
" />
<path d="M196.8272 62.5450
L189.3772 62.5450
" />
</g>
<g style="fill:#FFFFFF; fill-opacity:1.0000; stroke:none;">
<circle cx="213.4572" cy="60.3750" r="0.5000" /> 
</g>
<g style="fill:#FFFFFF; fill-opacity:1.0000; stroke:none;">
<circle cx="213.4572" cy="65.4550" r="0.5000" /> 
</g>
<g style="fill:#FFFFFF; fill-opacity:1.0000; stroke:none;">
<circle cx="213.4572" cy="70.5350" r="0.5000" /> 
</g>
<g style="fill:#FFFFFF; fill-opacity:1.0000; stroke:none;">
<circle cx="205.5372" cy="52.4550" r="0.5000" /> 
</g>
<g style="fill:#FFFFFF; fill-opacity:1.0000; stroke:none;">
<circle cx="200.4572" cy="52.4550" r="0.5000" /> 
</g>
<g style="fill:#FFFFFF; fill-opacity:1.0000; stroke:none;">
<circle cx="195.3772" cy="52.4550" r="0.5000" /> 
</g>
<g style="fill:#FFFFFF; fill-opacity:1.0000; stroke:none;">
<circle cx="213.4572" cy="76.3750" r="0.5000" /> 
</g>
<g style="fill:#FFFFFF; fill-opacity:1.0000; stroke:none;">
<circle cx="213.4572" cy="81.4550" r="0.5000" /> 
</g>
<g style="fill:#FFFFFF; fill-opacity:1.0000; stroke:none;">
<circle cx="204.4472" cy="60.0050" r="0.5000" /> 
</g>
<g style="fill:#FFFFFF; fill-opacity:1.0000; stroke:none;">
<circle cx="204.4472" cy="62.5450" r="0.5000" /> 
</g>
<g style="fill:#FFFFFF; fill-opacity:1.0000; stroke:none;">
<circle cx="204.4472" cy="65.0850" r="0.5000" /> 
</g>
<g style="fill:#FFFFFF; fill-opacity:1.0000; stroke:none;">
<circle cx="204.4472" cy="67.6250" r="0.5000" /> 
</g>
<g style="fill:#FFFFFF; fill-opacity:1.0000; stroke:none;">
<circle cx="204.4472" cy="70.1650" r="0.5000" /> 
</g>
<g style="fill:#FFFFFF; fill-opacity:1.0000; stroke:none;">
<circle cx="204.4472" cy="72.7050" r="0.5000" /> 
</g>
<g style="fill:#FFFFFF; fill-opacity:1.0000; stroke:none;">
<circle cx="204.4472" cy="75.2450" r="0.5000" /> 
</g>
<g style="fill:#FFFFFF; fill-opacity:1.0000; stroke:none;">
<circle cx="204.4472" cy="77.7850" r="0.5000" /> 
</g>
<g style="fill:#FFFFFF; fill-opacity:1.0000; stroke:none;">
<circle cx="196.8272" cy="77.7850" r="0.5000" /> 
</g>
<g style="fill:#FFFFFF; fill-opacity:1.0000; stroke:none;">
<circle cx="196.8272" cy="75.2450" r="0.5000" /> 
</g>
<g style="fill:#FFFFFF; fill-opacity:1.0000; stroke:none;">
<circle cx="196.8272" cy="72.7050" r="0.5000" /> 
</g>
<g style="fill:#FFFFFF; fill-opacity:1.0000; stroke:none;">
<circle cx="196.8272" cy="70.1650" r="0.5000" /> 
</g>
<g style="fill:#FFFFFF; fill-opacity:1.0000; stroke:none;">
<circle cx="196.8272" cy="67.6250" r="0.5000" /> 
</g>
<g style="fill:#FFFFFF; fill-opacity:1.0000; stroke:none;">
<circle cx="196.8272" cy="65.0850" r="0.5000" /> 
</g>
<g style="fill:#FFFFFF; fill-opacity:1.0000; stroke:none;">
<circle cx="196.8272" cy="62.5450" r="0.5000" /> 
</g>
<g style="fill:#FFFFFF; fill-opacity:1.0000; stroke:none;">
<circle cx="196.8272" cy="60.0050" r="0.5000" /> 
</g>
<g style="fill:#FFFFFF; fill-opacity:1.0000; stroke:none;">
<circle cx="189.0022" cy="84.0000" r="0.5000" /> 
</g>
<g style="fill:#FFFFFF; fill-opacity:1.0000; stroke:none;">
<circle cx="189.0022" cy="78.9200" r="0.5000" /> 
</g>
<g style="fill:#FFFFFF; fill-opacity:1.0000; stroke:none;">
<circle cx="189.0022" cy="62.9200" r="0.5000" /> 
</g>
<g style="fill:#FFFFFF; fill-opacity:1.0000; stroke:none;">
<circle cx="189.0022" cy="68.0000" r="0.5000" /> 
</g>
<g style="fill:#FFFFFF; fill-opacity:1.0000; stroke:none;">
<circle cx="189.0022" cy="73.0800" r="0.5000" /> 
</g> 
</svg>
