M48
; DRILL file {KiCad 8.0.5} date 2024-09-27T19:55:48-0300
; FORMAT={-:-/ absolute / metric / decimal}
; #@! TF.CreationDate,2024-09-27T19:55:48-03:00
; #@! TF.GenerationSoftware,Kicad,Pcbnew,8.0.5
; #@! TF.FileFunction,Plated,1,2,PTH
FMAT,2
METRIC
; #@! TA.AperFunction,Plated,PTH,ComponentDrill
T1C0.800
; #@! TA.AperFunction,Plated,PTH,ComponentDrill
T2C1.520
%
G90
G05
T1
X139.01Y-89.55
X139.01Y-92.09
X139.01Y-94.63
X139.01Y-97.17
X139.01Y-99.71
X139.01Y-102.25
X139.01Y-104.79
X139.01Y-107.33
X146.63Y-89.55
X146.63Y-92.09
X146.63Y-94.63
X146.63Y-97.17
X146.63Y-99.71
X146.63Y-102.25
X146.63Y-104.79
X146.63Y-107.33
T2
X130.0Y-89.92
X130.0Y-95.0
X130.0Y-100.08
X130.0Y-105.92
X130.0Y-111.0
X137.92Y-82.0
X143.0Y-82.0
X148.08Y-82.0
X155.0Y-89.92
X155.0Y-95.0
X155.0Y-100.08
X155.0Y-105.92
X155.0Y-111.0
M30
